<?xml version="1.0" standalone="no"?>
<!DOCTYPE svg PUBLIC "-//W3C//DTD SVG 20010904//EN"
 "http://www.w3.org/TR/2001/REC-SVG-20010904/DTD/svg10.dtd">
<svg version="1.0" xmlns="http://www.w3.org/2000/svg"
 width="1024.000000pt" height="1024.000000pt" viewBox="0 0 1024.000000 1024.000000"
 preserveAspectRatio="xMidYMid meet">

<g transform="translate(0.000000,1024.000000) scale(0.100000,-0.100000)"
fill="#000000" stroke="none">
<path d="M5270 9810 c-257 -12 -594 -82 -849 -177 -231 -86 -493 -219 -676
-344 -246 -167 -518 -438 -712 -709 -109 -152 -298 -488 -396 -705 -159 -351
-375 -1051 -423 -1374 -28 -187 0 -447 67 -621 43 -113 121 -233 172 -266 l42
-28 0 -191 c0 -167 3 -201 24 -284 27 -107 38 -137 88 -236 74 -147 201 -288
312 -348 53 -29 148 -50 157 -36 3 5 -7 9 -22 9 -83 0 -260 140 -332 262 -48
81 -99 223 -118 325 -16 91 -32 363 -21 363 4 0 29 -9 57 -20 28 -11 61 -20
74 -20 20 0 29 -11 52 -67 16 -38 44 -88 63 -112 36 -47 51 -88 51 -135 0 -43
75 -256 126 -357 67 -134 214 -353 267 -400 l30 -27 -19 -36 c-26 -51 -91
-127 -141 -165 -60 -46 -110 -68 -194 -85 -52 -10 -63 -14 -39 -15 59 -1 211
35 282 67 37 17 88 47 115 67 l47 36 23 -66 c12 -36 38 -92 58 -125 34 -56
107 -130 129 -130 5 0 -9 16 -32 36 -26 22 -55 62 -77 107 -36 74 -71 194 -60
205 3 3 16 0 28 -8 12 -7 52 -28 88 -47 55 -28 71 -32 93 -24 14 6 34 8 43 4
17 -6 17 -5 1 14 -11 12 -18 36 -18 61 0 41 0 41 33 36 17 -4 37 -13 43 -20
30 -37 22 -291 -12 -404 -28 -96 -90 -206 -154 -274 -59 -62 -143 -116 -182
-116 -10 0 -18 -5 -18 -10 0 -23 144 31 216 81 149 102 278 289 327 472 l23
87 32 -108 c55 -184 61 -261 30 -392 -25 -106 -110 -250 -195 -332 -41 -40
-182 -118 -213 -118 -10 0 -21 -4 -24 -9 -13 -20 125 23 219 68 128 63 242
165 315 284 28 45 50 87 50 94 0 7 4 13 8 13 8 0 26 -111 38 -230 5 -54 1 -79
-20 -145 -14 -44 -28 -107 -32 -140 -6 -49 -13 -65 -38 -89 -102 -95 -148
-143 -234 -245 -304 -359 -466 -520 -617 -616 -156 -98 -562 -305 -770 -391
-161 -68 -472 -180 -690 -250 -93 -30 -195 -63 -225 -74 -119 -40 -690 -199
-768 -214 -190 -36 -242 -84 -301 -275 -66 -212 -77 -252 -107 -374 -24 -101
-26 -119 -14 -127 19 -12 25 -5 38 50 76 299 143 515 178 577 33 57 82 86 151
87 54 1 56 0 74 -34 37 -71 35 -84 -13 -113 -101 -59 -190 -183 -304 -422 -72
-151 -73 -158 -32 -183 32 -19 325 -156 513 -240 50 -22 130 -52 178 -67 48
-15 90 -31 93 -36 3 -5 284 -9 632 -9 l627 0 105 39 c199 74 314 131 445 220
173 117 505 325 575 361 48 24 5 -7 -85 -62 -139 -84 -199 -123 -417 -266
-171 -112 -351 -211 -508 -280 -18 -8 196 -11 803 -11 455 -1 827 2 827 5 0 3
-22 58 -49 123 -167 394 -308 896 -330 1176 -10 132 -6 387 7 450 9 40 9 39
16 -30 42 -378 150 -880 271 -1255 18 -58 45 -141 59 -185 50 -156 15 -7 -53
225 -136 467 -197 744 -208 946 -3 63 -10 111 -15 108 -4 -3 -8 1 -8 8 0 7 -5
42 -10 78 -12 77 -14 276 -4 351 8 61 9 59 49 -73 39 -126 104 -449 103 -508
0 -14 7 -61 16 -105 9 -44 23 -143 31 -220 8 -76 20 -144 25 -149 16 -16 44
32 130 217 24 52 28 53 46 4 96 -263 145 -407 174 -515 13 -45 25 -81 27 -78
2 2 -3 28 -11 57 -19 61 -20 80 -5 59 9 -12 9 -11 4 5 -25 69 -136 403 -155
467 -14 49 -20 86 -16 104 l7 28 19 -39 c10 -22 49 -71 87 -110 38 -38 101
-114 141 -167 40 -54 74 -98 77 -98 16 0 -199 273 -240 305 -22 18 -65 87 -65
106 0 10 15 44 34 76 18 32 45 79 60 106 15 26 31 47 35 47 5 0 24 -24 42 -52
19 -29 77 -98 130 -154 53 -55 120 -134 148 -175 29 -41 57 -73 63 -71 5 1 8
-3 6 -10 -3 -7 6 -28 19 -47 34 -50 31 -127 -8 -233 -17 -45 -33 -89 -35 -96
-3 -9 -19 2 -47 30 -23 24 -30 30 -16 14 59 -68 59 -63 -1 -226 -21 -58 -50
-145 -65 -194 -14 -49 -29 -94 -34 -100 -5 -6 -11 -35 -15 -65 -4 -30 -11 -62
-15 -70 -5 -9 -11 -28 -15 -43 l-6 -28 504 0 504 0 -16 50 c-21 66 -21 66 138
460 119 294 206 523 224 590 13 48 -12 -4 -44 -91 -17 -46 -51 -131 -75 -189
-24 -58 -83 -204 -130 -325 -131 -337 -138 -355 -142 -351 -2 2 -35 95 -72
207 -38 112 -78 228 -90 257 l-20 54 86 126 c48 70 126 181 173 247 122 169
145 205 146 234 1 14 4 46 8 71 l6 45 -15 -52 c-21 -76 -69 -166 -142 -268
-36 -49 -109 -154 -163 -233 -54 -79 -102 -143 -106 -143 -4 0 -20 40 -35 88
-33 102 -33 166 -1 253 11 30 39 113 62 185 25 78 71 187 115 275 41 80 81
163 88 184 8 22 18 41 23 43 8 2 48 -55 161 -228 13 -19 23 -39 23 -43 0 -5
25 -47 55 -95 30 -48 55 -97 55 -109 0 -12 -9 -44 -19 -72 -11 -27 -14 -47 -8
-43 7 4 8 0 2 -13 -15 -37 -35 -107 -31 -111 2 -2 14 25 26 59 13 35 27 67 32
72 15 18 8 29 -9 15 -15 -13 -15 -12 -4 9 7 13 17 20 23 16 7 -5 9 -2 6 8 -10
26 22 16 43 -13 11 -16 40 -71 64 -124 66 -141 75 -129 100 125 27 276 35 333
71 470 51 201 117 430 121 426 10 -10 2 -253 -11 -347 -8 -57 -17 -156 -20
-219 -4 -69 -16 -155 -31 -215 -13 -55 -32 -147 -41 -205 -9 -58 -31 -166 -49
-240 -19 -74 -37 -146 -40 -160 -3 -14 8 11 25 55 17 44 42 139 56 210 14 72
37 184 51 250 14 66 31 174 39 240 7 66 20 181 29 255 8 74 16 155 16 180 l1
45 8 -35 c5 -19 16 -100 26 -180 14 -122 15 -165 5 -270 -34 -388 -77 -559
-279 -1115 -44 -121 -89 -241 -101 -267 l-20 -48 841 0 c463 0 839 2 837 3 -2
2 -92 46 -199 97 -200 96 -307 157 -465 266 -49 34 -104 69 -122 78 -27 14
-180 119 -193 133 -15 17 70 -37 275 -173 237 -157 331 -210 592 -333 l152
-71 650 0 c388 0 660 4 675 10 14 5 32 22 41 37 12 22 14 23 10 6 -4 -13 -2
-23 3 -23 16 0 192 66 262 98 141 64 361 163 480 215 102 44 124 58 122 73 -6
36 -124 426 -148 491 -35 92 -52 123 -88 161 -46 50 -110 78 -218 96 -49 9
-257 66 -423 116 -71 21 -213 64 -315 94 -648 194 -1276 447 -1593 642 -234
145 -287 187 -434 346 -78 84 -177 196 -220 249 -133 164 -265 313 -300 339
-22 15 -32 30 -29 40 32 96 48 184 70 391 15 134 29 251 32 259 3 8 17 -23 30
-70 31 -106 109 -266 168 -345 84 -111 227 -215 316 -231 30 -5 26 -1 -25 23
-158 78 -265 276 -319 592 -17 101 -22 256 -8 265 5 3 20 -18 33 -46 34 -73
91 -160 141 -214 89 -97 225 -176 323 -188 l50 -6 -57 19 c-109 36 -186 98
-250 201 -76 122 -108 243 -108 410 0 168 41 320 126 466 19 32 45 82 58 109
12 28 28 61 35 75 9 19 10 -49 6 -300 -3 -179 -8 -343 -11 -365 -10 -78 13
-11 30 85 10 52 24 122 33 155 8 33 24 112 34 175 11 63 23 118 27 121 4 4 37
-20 74 -52 l67 -58 -83 -73 c-46 -40 -83 -75 -81 -76 4 -4 87 49 147 94 l38
27 77 -35 c89 -40 139 -54 238 -63 76 -8 83 1 13 16 -68 16 -161 67 -208 114
l-43 43 80 79 c44 43 94 99 111 125 85 125 182 370 218 548 l17 85 88 83 c140
131 209 253 261 456 32 125 30 359 -5 521 -44 204 -106 467 -127 540 -11 39
-27 143 -35 233 -15 162 -47 352 -85 517 -35 151 -25 153 45 11 106 -214 162
-391 180 -566 7 -69 -9 -220 -27 -255 -10 -18 -10 -19 5 -6 46 38 65 230 38
379 -31 166 -128 422 -273 722 -52 107 -110 231 -129 274 -41 97 -178 346
-246 447 -141 208 -300 385 -483 538 -224 187 -342 270 -460 321 -44 19 -79
25 -175 29 -131 6 -136 8 -218 79 -84 73 -277 136 -447 145 -47 2 -164 1 -260
-3z m466 -54 c122 -35 185 -64 268 -125 78 -58 80 -58 191 -64 142 -7 297 -89
504 -265 221 -188 281 -244 371 -348 159 -182 271 -349 382 -569 72 -142 174
-403 188 -485 5 -25 29 -128 54 -230 46 -191 90 -448 84 -497 -2 -17 -12 15
-26 82 -45 221 -151 640 -207 820 -79 251 -270 582 -473 818 -206 241 -390
371 -607 432 -81 22 -85 24 -35 19 30 -4 100 -21 155 -39 l99 -32 -57 53 c-64
60 -231 163 -317 195 -49 19 -63 20 -125 11 -38 -5 -77 -13 -86 -16 -13 -6
-16 -2 -12 18 3 14 1 26 -5 26 -5 0 -32 18 -60 40 -58 47 -192 101 -312 126
-126 27 -520 23 -520 -5 0 -5 51 -11 113 -15 61 -4 141 -13 177 -20 l65 -12
-145 -7 c-690 -34 -1077 -174 -1800 -653 -203 -134 -418 -354 -605 -619 -28
-38 -64 -90 -82 -115 -75 -104 -257 -444 -306 -569 -9 -25 -19 -42 -22 -39
-13 13 151 359 272 571 64 114 210 343 252 397 347 443 755 750 1247 938 232
89 369 127 619 171 222 40 216 39 460 36 192 -3 218 -5 301 -29z m-84 -330
c72 -17 175 -77 255 -150 123 -112 226 -334 283 -612 21 -100 46 -342 37 -351
-3 -3 -8 15 -11 39 -19 163 -29 222 -52 326 -51 231 -152 459 -243 551 -71 72
-197 156 -263 176 -209 62 -556 -9 -907 -184 -247 -123 -501 -330 -764 -621
l-68 -75 47 70 c105 154 241 293 416 425 211 159 391 255 634 340 199 69 494
100 636 66z m48 -114 c25 -90 -4 -330 -71 -596 -26 -106 -135 -437 -217 -666
-17 -47 -40 -117 -51 -157 -12 -39 -30 -82 -41 -95 -18 -22 -18 -18 4 52 12
41 51 158 85 260 73 216 165 531 181 622 6 34 18 88 25 118 25 98 47 321 43
433 -3 104 -3 108 14 87 10 -12 22 -38 28 -58z m-1380 -18 c-296 -154 -495
-289 -731 -492 -245 -212 -513 -551 -647 -819 -122 -244 -260 -837 -343 -1473
-5 -41 -16 -196 -24 -344 -9 -149 -17 -272 -19 -274 -2 -2 -7 77 -11 174 -11
248 22 697 70 989 50 296 112 556 155 652 17 37 28 68 26 70 -2 2 -17 -18 -33
-44 -16 -26 -45 -73 -63 -103 -38 -62 -202 -389 -262 -525 -69 -154 -166 -461
-191 -605 -4 -22 -4 -22 -6 5 -3 74 121 570 186 745 28 77 215 456 243 495 4
6 27 46 50 90 24 44 83 136 131 205 49 69 121 172 161 230 40 57 105 143 144
190 82 99 313 325 400 391 204 157 505 348 654 417 99 45 235 101 245 102 6 0
-55 -34 -135 -76z m1010 -69 c-182 -45 -483 -183 -770 -354 -263 -156 -369
-248 -531 -462 -65 -87 -155 -213 -200 -281 -44 -68 -84 -125 -87 -128 -17
-15 107 188 214 349 89 134 94 145 48 96 -216 -232 -269 -291 -332 -369 -85
-106 -190 -272 -263 -418 -44 -88 -60 -138 -111 -343 -72 -293 -152 -690 -170
-845 -8 -74 -13 -237 -13 -455 0 -370 0 -365 66 -600 17 -60 33 -121 35 -135
5 -25 5 -25 -11 2 -33 58 -74 209 -96 358 -21 138 -24 188 -23 460 0 396 18
532 135 1026 32 139 59 260 59 269 0 20 -40 -50 -128 -225 -116 -229 -364
-835 -482 -1181 -63 -182 -80 -223 -87 -206 -11 24 74 329 138 492 252 650
337 852 434 1030 24 44 92 175 152 290 111 213 256 463 297 513 13 15 72 92
132 172 190 251 318 364 626 548 392 234 843 419 1023 420 31 1 18 -5 -55 -23z
m1001 -150 c40 -13 97 -41 126 -61 259 -178 600 -784 728 -1294 64 -255 114
-562 140 -859 16 -179 20 -1078 4 -991 -4 25 -8 200 -8 390 -2 522 -11 627
-96 1065 -66 346 -107 490 -216 772 -79 205 -141 333 -239 488 -198 316 -345
450 -548 499 l-57 14 47 1 c25 1 79 -10 119 -24z m-294 -187 c-3 -8 -6 -5 -6
6 -1 11 2 17 5 13 3 -3 4 -12 1 -19z m10 -40 c-3 -8 -6 -5 -6 6 -1 11 2 17 5
13 3 -3 4 -12 1 -19z m-211 -120 c-47 -172 -131 -378 -233 -567 -78 -147 -130
-225 -245 -374 -250 -322 -498 -564 -745 -728 -58 -38 -131 -89 -162 -113 -60
-46 -81 -59 -81 -53 0 2 51 41 113 87 61 46 164 122 227 169 180 134 515 481
639 661 14 19 46 61 73 93 137 166 302 502 400 819 18 59 34 105 36 103 2 -2
-8 -45 -22 -97z m273 -213 c5 -60 7 -132 5 -160 -24 -254 -41 -350 -86 -475
-29 -81 -59 -136 -44 -80 42 154 57 234 77 405 26 237 28 387 6 510 -24 129
-19 138 8 15 13 -57 28 -154 34 -215z m-2363 281 c3 -14 -2 -35 -13 -53 -27
-44 -107 -143 -115 -143 -4 0 -23 20 -44 45 -41 51 -40 53 29 91 16 8 49 31
74 50 53 40 61 42 69 10z m124 -59 c0 -27 -63 -139 -97 -173 -24 -25 -42 -34
-66 -34 -55 0 -63 13 -30 51 16 19 37 47 47 62 10 16 20 26 23 23 4 -3 13 3
20 14 14 20 80 68 96 69 4 1 7 -5 7 -12z m390 -173 c0 -3 -24 -34 -54 -69 -29
-35 -80 -103 -112 -152 -48 -72 -59 -84 -62 -65 -2 13 6 39 17 58 12 20 19 40
16 45 -4 5 -1 9 4 9 6 0 11 6 11 13 0 8 9 24 20 37 11 13 20 27 20 32 0 4 7 8
15 8 8 0 15 5 15 10 0 6 8 14 18 17 20 8 36 21 60 46 16 17 32 23 32 11z m101
-25 c-17 -46 39 -158 89 -179 27 -11 80 0 108 22 47 37 -117 -178 -188 -247
l-51 -50 -34 40 c-28 33 -39 39 -65 37 -27 -3 -44 4 -109 47 -11 7 -4 24 34
87 66 109 209 283 222 270 2 -2 -1 -14 -6 -27z m398 -28 c-8 -10 -47 -63 -87
-117 -179 -240 -282 -390 -375 -544 -55 -91 -112 -183 -127 -205 -94 -141
-325 -615 -436 -897 -21 -54 -40 -96 -42 -94 -12 12 170 441 289 681 89 180
414 741 458 790 10 11 46 62 81 113 34 52 102 139 152 193 84 92 119 125 87
80z m23 -168 c-6 -15 -14 -48 -18 -73 -3 -25 -15 -63 -27 -85 -46 -93 -132
-195 -162 -195 -21 0 -15 20 37 124 80 159 212 337 170 229z m157 -183 l72 0
-42 -77 c-23 -43 -53 -95 -67 -117 l-24 -38 -21 21 c-13 11 -58 36 -101 56
-56 27 -76 40 -72 51 3 8 29 51 58 95 l52 79 36 -35 c34 -34 39 -35 109 -35z
m1916 -126 c57 -151 58 -191 6 -143 -27 25 -97 131 -107 161 -3 11 2 46 12 77
l19 58 17 -27 c9 -15 33 -72 53 -126z m-945 85 c-11 -42 -48 -146 -77 -217
l-13 -32 -27 17 c-37 24 -155 24 -202 -1 -18 -10 -32 -14 -30 -9 2 5 30 57 62
116 l58 108 47 -7 c50 -6 112 15 162 55 14 11 26 18 28 16 2 -1 -2 -23 -8 -46z
m1010 -49 c5 -19 10 -39 10 -45 -1 -13 -46 83 -55 115 -6 23 -5 23 14 -5 12
-16 26 -46 31 -65z m-234 14 c40 -27 64 -84 64 -156 0 -62 -20 -115 -40 -103
-4 3 -26 60 -48 128 -60 185 -57 169 -28 157 14 -5 37 -17 52 -26z m-1451 11
c77 -8 105 -15 105 -26 0 -7 -23 -60 -67 -156 -8 -17 -21 -34 -29 -37 -8 -3
-43 6 -76 20 -44 18 -71 24 -95 19 -18 -3 -33 -3 -33 0 0 3 20 48 44 100 40
86 47 95 68 91 13 -3 50 -8 83 -11z m1004 -670 c11 -38 31 -123 46 -187 32
-147 131 -446 183 -559 23 -48 59 -116 80 -151 l40 -65 -91 23 c-206 52 -481
54 -671 5 -44 -12 -81 -19 -84 -17 -2 3 16 42 40 88 73 135 176 363 238 523
65 171 86 239 130 415 17 69 33 132 37 140 3 8 12 -21 19 -65 8 -44 23 -111
33 -150z m-3585 -15 c-85 -373 -124 -728 -131 -1200 -5 -294 -3 -340 11 -374
17 -41 20 -75 10 -125 -22 -106 -167 83 -226 294 -20 72 -22 103 -22 315 0
204 3 250 22 348 24 119 74 284 112 367 110 243 236 492 245 483 2 -2 -8 -50
-21 -108z m3781 -370 c26 -63 83 -198 127 -300 71 -163 118 -283 118 -298 0
-3 -9 3 -20 13 -26 23 -98 172 -149 307 -65 173 -143 414 -128 398 3 -3 26
-57 52 -120z m-1525 -56 c-34 -82 -77 -197 -96 -255 -38 -120 -109 -269 -127
-269 -7 0 -34 7 -61 15 -60 18 -210 45 -253 45 -18 0 -33 4 -33 9 0 5 30 30
66 56 36 26 162 143 280 261 124 124 216 208 220 202 4 -7 2 -8 -4 -4 -7 4
-12 5 -12 2 0 -3 4 -7 9 -11 5 -3 21 20 35 51 15 32 29 55 31 52 3 -3 -22 -72
-55 -154z m841 -325 c-21 -52 -46 -117 -55 -146 -12 -36 -28 -60 -52 -78 -49
-37 -86 -97 -88 -143 -1 -29 -17 -61 -58 -123 -69 -102 -99 -135 -206 -223
-46 -38 -81 -71 -78 -73 2 -3 25 4 49 15 69 31 229 201 327 347 54 82 70 94
151 120 123 39 331 60 584 59 121 -1 240 -5 264 -10 42 -9 46 -13 104 -109 33
-55 79 -124 103 -154 46 -56 58 -96 27 -88 -46 13 -80 18 -219 32 -155 17
-253 13 -312 -11 -18 -7 -69 -18 -115 -24 -119 -16 -200 -39 -230 -63 -15 -12
-44 -33 -66 -46 -51 -31 -157 -139 -166 -169 -6 -21 -4 -23 17 -17 12 3 54 22
92 41 47 24 67 30 63 19 -8 -19 7 -20 26 0 8 8 17 11 20 8 4 -3 22 8 42 26 43
38 105 45 105 11 0 -29 -41 -51 -99 -53 -45 -2 -51 -4 -51 -24 0 -26 37 -130
49 -138 5 -2 32 2 60 11 35 10 57 12 69 5 10 -5 45 -13 79 -16 48 -6 68 -4 94
10 78 41 79 41 79 20 0 -18 34 -37 54 -29 36 14 86 147 86 231 0 28 4 43 13
43 26 0 162 -42 168 -52 14 -23 -19 -97 -87 -195 -24 -35 -41 -63 -37 -63 3 0
22 12 42 27 20 16 40 27 44 25 5 -1 6 2 2 8 -8 13 155 170 178 170 17 0 18 -7
12 -72 -13 -141 -25 -193 -64 -273 -47 -96 -117 -201 -151 -226 -48 -36 -204
-53 -465 -53 -207 0 -253 3 -337 21 -178 39 -257 105 -265 220 -7 98 -9 103
-43 96 -23 -4 -30 -2 -30 10 0 9 6 22 14 30 12 12 10 21 -15 63 -26 44 -29 58
-29 134 0 100 12 128 62 153 50 25 331 87 393 87 53 0 273 34 283 44 3 3 -58
6 -136 6 -77 0 -143 4 -146 8 -15 25 204 61 384 63 l125 2 -85 9 c-103 11
-321 2 -412 -18 -37 -7 -96 -25 -130 -39 -35 -14 -99 -35 -143 -46 -97 -24
-202 -63 -233 -87 -13 -10 -32 -43 -41 -73 l-18 -54 -119 3 c-66 2 -141 -1
-168 -6 -56 -11 -72 -8 -79 17 -3 12 7 25 32 41 20 13 61 39 91 59 30 19 141
121 245 226 197 197 216 222 377 487 29 48 54 86 55 84 2 -2 -14 -45 -36 -97z
m1966 -116 c-3 -10 -5 -2 -5 17 0 19 2 27 5 18 2 -10 2 -26 0 -35z m92 -142
c86 -426 77 -600 -47 -835 -36 -68 -116 -165 -127 -154 -3 3 3 61 14 129 11
68 23 151 26 184 4 33 15 94 25 135 21 81 45 334 56 580 4 91 10 146 15 133 4
-11 21 -89 38 -172z m-4145 145 c-3 -15 -8 -25 -11 -23 -2 3 -1 17 3 31 3 15
8 25 11 23 2 -3 1 -17 -3 -31z m4053 -58 c-3 -7 -5 -2 -5 12 0 14 2 19 5 13 2
-7 2 -19 0 -25z m-2971 -35 c-11 -11 -17 4 -9 23 7 18 8 18 11 1 2 -10 1 -21
-2 -24z m-261 -74 c175 -35 175 -35 165 -68 -12 -44 -25 -63 -74 -111 -25 -25
-46 -50 -46 -57 0 -22 -19 -24 -72 -8 -76 22 -270 35 -395 27 l-108 -7 145 -6
c148 -6 243 -24 310 -59 51 -27 22 -34 -94 -21 -96 11 -183 14 -175 7 2 -2 67
-14 144 -25 143 -22 179 -35 132 -46 -16 -4 -51 1 -89 14 -35 12 -101 26 -148
31 -47 6 -114 17 -150 26 -47 11 -105 14 -207 12 -78 -2 -139 0 -135 3 4 3 77
50 162 104 85 54 193 125 240 157 l85 60 105 -7 c58 -3 150 -15 205 -26z
m2281 -81 c19 -38 33 -72 31 -74 -2 -3 -24 32 -47 77 -23 45 -37 78 -31 75 6
-4 27 -39 47 -78z m-2056 -170 c-6 -35 -14 -66 -16 -70 -3 -4 -17 -2 -33 3
l-29 10 25 47 c25 46 54 83 62 76 2 -2 -2 -32 -9 -66z m-140 -17 c0 -5 8 -12
18 -15 10 -3 7 -4 -7 -3 -24 2 -44 27 -22 27 6 0 11 -4 11 -9z m-1060 -92
c-69 -23 -133 -48 -142 -56 -9 -8 -21 -31 -26 -51 l-10 -37 -1 36 c-2 54 27
82 107 108 72 22 142 38 177 40 11 0 -36 -18 -105 -40z m344 35 c25 -4 46 -11
46 -17 0 -13 -150 -1 -164 13 -12 12 46 13 118 4z m2773 -1 c-12 -12 -121 -22
-167 -15 -43 6 -44 6 -15 13 40 9 190 11 182 2z m314 -44 c69 -23 106 -46 54
-33 -47 11 -152 53 -134 53 8 1 44 -9 80 -20z m-3892 -98 c-2 -76 43 -391 73
-501 10 -41 30 -102 43 -134 13 -33 22 -63 19 -67 -2 -4 1 -11 7 -15 8 -5 9
-3 4 6 -5 9 -4 11 3 6 7 -4 12 -12 12 -18 0 -5 9 -22 19 -37 10 -14 52 -89 91
-165 68 -129 71 -137 44 -120 -48 29 -82 64 -157 159 -39 50 -89 110 -112 135
-51 56 -132 195 -151 257 -21 69 -17 193 11 357 23 139 42 203 67 234 18 21
29 -19 27 -97z m1520 94 c26 -13 29 -20 33 -77 3 -35 3 -67 1 -71 -3 -5 -17 2
-32 15 -14 14 -39 32 -54 42 -39 24 -28 30 22 12 56 -19 49 2 -8 23 -30 11
-44 12 -49 5 -4 -7 -15 -8 -28 -3 -27 9 -41 29 -21 29 7 0 31 9 53 20 48 23
48 24 83 5z m2214 -15 c70 -22 108 -50 67 -50 -35 0 -220 52 -220 61 0 16 87
9 153 -11z m-3073 -7 c-36 -16 -160 -31 -148 -18 15 16 86 34 133 34 l50 -1
-35 -15z m3689 -21 c23 -46 36 -116 52 -282 17 -183 10 -231 -47 -353 -32 -68
-65 -120 -99 -157 -28 -30 -72 -86 -97 -125 -25 -38 -61 -84 -80 -101 -30 -29
-140 -104 -152 -104 -2 0 11 38 30 85 19 47 34 90 34 95 0 6 12 36 27 66 22
45 35 58 70 74 57 25 139 110 153 158 16 56 50 285 57 386 l6 89 19 -59 c10
-32 22 -79 25 -103 4 -28 9 -38 14 -29 4 8 -3 69 -17 139 -21 110 -32 259 -19
259 2 0 13 -17 24 -38z m-3529 -88 c0 -30 -3 -35 -17 -30 -15 5 -15 4 1 -9 11
-8 23 -15 27 -15 4 0 10 -22 14 -49 7 -52 36 -108 60 -118 9 -3 32 1 53 9 33
13 42 12 86 -5 43 -16 59 -17 110 -8 34 6 62 15 64 21 6 17 41 11 52 -10 12
-23 48 -26 73 -7 23 17 47 91 47 143 0 24 3 44 6 44 4 0 27 -17 52 -37 25 -21
50 -41 56 -45 13 -9 -12 -29 -71 -58 -55 -26 -55 -33 -2 -15 51 18 49 18 49 0
0 -20 -113 -150 -150 -172 -16 -9 -30 -21 -30 -25 0 -14 69 20 121 58 27 19
52 33 56 31 5 -3 46 19 93 49 114 72 249 154 255 154 12 0 3 -76 -15 -131 -12
-33 -18 -69 -15 -79 5 -15 0 -19 -22 -22 -27 -3 -28 -6 -34 -68 -15 -178 -128
-245 -455 -269 -186 -14 -465 9 -565 48 -27 10 -49 41 -147 211 l-55 94 5 123
c3 68 8 126 12 130 3 4 48 -34 99 -84 50 -49 103 -96 116 -103 22 -11 21 -7
-12 37 -47 64 -97 159 -97 184 0 21 28 35 95 49 79 16 85 14 85 -26z m150 -9
c9 -11 7 -19 -14 -40 -21 -21 -34 -26 -64 -23 -31 2 -38 7 -40 27 -3 15 3 30
14 38 24 17 89 17 104 -2z m1731 -68 c-13 -12 -20 -15 -16 -7 14 26 28 41 33
35 3 -3 -5 -16 -17 -28z m-2966 -137 c9 -69 28 -178 41 -244 27 -132 27 -138
14 -115 -26 45 -80 356 -80 463 0 55 8 21 25 -104z m4488 -20 c10 -121 -7
-205 -63 -325 -50 -108 -74 -145 -93 -145 -5 0 -7 10 -4 23 3 12 11 44 17 70
7 30 16 47 24 44 7 -3 11 5 11 22 0 19 6 27 23 29 28 4 29 22 1 22 -18 0 -21
5 -17 38 3 20 14 71 26 112 12 41 29 111 38 155 15 71 18 77 25 50 4 -16 9
-59 12 -95z m-2022 100 c62 -12 116 -54 97 -77 -11 -14 -4 -28 15 -28 13 0 36
-57 36 -91 1 -11 19 -49 41 -85 22 -35 52 -88 66 -117 42 -85 88 -126 169
-151 128 -40 225 -53 435 -58 190 -5 217 -3 365 22 87 15 171 33 185 40 25 13
43 38 106 150 64 114 33 -21 -43 -190 -81 -177 -181 -314 -294 -400 -56 -43
-171 -105 -196 -105 -6 0 -15 -5 -18 -10 -19 -31 158 41 240 97 78 53 186 148
224 197 17 21 31 35 31 31 0 -19 -81 -158 -131 -225 -117 -155 -226 -245 -352
-290 -79 -29 -30 -24 59 6 100 33 223 90 297 137 32 21 59 37 62 37 2 0 -15
-44 -39 -97 -74 -169 -200 -345 -358 -500 -187 -183 -691 -540 -928 -656 -74
-36 -94 -42 -150 -41 -75 0 -124 18 -270 102 -388 223 -778 536 -963 775 -83
107 -188 302 -222 415 -6 22 -6 22 21 -4 86 -79 293 -185 359 -183 29 1 29 1
5 8 -47 15 -115 54 -164 95 -64 53 -201 217 -232 279 -52 100 -49 104 25 34
38 -36 98 -85 133 -108 77 -53 210 -109 258 -109 33 1 30 3 -32 29 -158 68
-308 225 -410 431 -39 79 -88 233 -88 274 0 6 21 -25 46 -69 72 -126 62 -121
274 -156 287 -49 679 -14 818 71 18 11 45 40 60 65 15 25 55 89 90 142 48 74
62 103 57 121 -3 13 -1 40 6 59 10 30 14 34 37 28 25 -6 25 -6 8 20 -20 30
-16 39 27 62 64 33 144 41 238 23z m-2573 -135 c22 -66 39 -122 37 -124 -9 -8
-97 43 -112 65 -14 22 -14 30 8 104 12 44 24 79 25 77 1 -1 21 -56 42 -122z
m4588 -261 c-4 -9 -9 -15 -11 -12 -3 3 -3 13 1 22 4 9 9 15 11 12 3 -3 3 -13
-1 -22z m-23 -55 c-10 -17 -27 -38 -37 -47 -17 -14 -16 -11 4 23 21 35 38 54
48 55 2 0 -5 -14 -15 -31z m-4168 -197 c-2 -2 -16 2 -32 10 -25 11 -28 19 -31
63 l-2 50 34 -60 c19 -32 33 -61 31 -63z m4411 66 c-13 -95 -55 -257 -87 -335
-18 -42 -54 -108 -80 -147 -45 -68 -124 -155 -132 -145 -18 21 -77 157 -77
178 0 14 9 64 19 111 17 75 28 99 95 200 85 128 92 125 55 -20 -24 -94 -53
-166 -76 -192 -24 -27 0 -22 25 5 27 29 81 148 117 255 26 80 29 84 78 112 29
17 56 30 61 30 5 0 5 -24 2 -52z m-4128 -98 c37 -68 100 -154 189 -257 29 -33
53 -64 53 -67 0 -12 -55 7 -92 31 -49 33 -74 72 -154 238 -37 77 -69 145 -72
150 -3 6 5 1 17 -10 12 -11 39 -49 59 -85z m3651 -47 c-17 -48 -44 -116 -61
-150 -26 -56 -37 -67 -96 -102 -36 -22 -68 -38 -71 -36 -4 4 41 73 88 135 10
14 40 59 67 100 51 80 94 140 100 140 2 0 -10 -39 -27 -87z m-3899 17 c37 -42
118 -180 146 -248 35 -87 55 -192 60 -317 l5 -110 -40 43 c-43 46 -165 284
-200 388 -22 66 -61 237 -61 267 0 28 58 13 90 -23z m277 -297 c-2 -16 -4 -3
-4 27 0 30 2 43 4 28 2 -16 2 -40 0 -55z m252 -280 c28 -56 75 -193 68 -199
-2 -2 -19 -1 -38 2 l-35 6 -11 107 c-6 58 -14 114 -18 124 -4 9 -4 17 -1 17 3
0 19 -26 35 -57z m-42 -175 c8 -59 13 -114 9 -123 -3 -8 -16 -15 -29 -15 -27
0 -145 73 -153 95 -3 8 9 36 29 62 19 27 49 75 68 107 l33 59 13 -39 c8 -21
21 -87 30 -146z m791 -672 c212 -202 526 -454 686 -549 111 -66 163 -57 316
57 201 150 408 319 574 470 42 38 79 66 82 63 3 -3 1 -37 -5 -75 -26 -164 -41
-306 -47 -440 l-7 -144 -96 -84 c-150 -132 -368 -297 -529 -399 -81 -51 -161
-105 -179 -120 l-32 -26 -63 46 c-35 25 -130 93 -213 151 -195 138 -368 278
-450 365 -58 62 -65 74 -65 109 0 61 -56 587 -66 628 -11 38 13 25 94 -52z
m1817 -290 c9 -120 13 -235 9 -255 -6 -35 -7 -33 -19 34 -7 39 -27 96 -44 129
-17 32 -31 69 -31 83 0 27 63 251 66 237 2 -5 10 -107 19 -228z m-1921 -143
c-4 -48 -7 -94 -5 -100 3 -21 -15 -15 -33 10 l-17 22 12 -25 c19 -41 202 -255
219 -255 3 0 38 -26 78 -59 68 -55 88 -75 60 -61 -7 4 -2 -3 11 -14 12 -12 26
-19 30 -17 4 3 50 -27 101 -66 52 -39 147 -105 211 -148 64 -43 119 -86 122
-94 4 -9 10 -16 14 -15 34 6 47 -18 32 -59 l-11 -27 -13 25 c-8 14 -14 33 -15
43 0 22 -7 22 -52 -6 -112 -68 -419 -499 -693 -972 -32 -55 -79 -136 -105
-180 -27 -44 -55 -100 -63 -124 -23 -71 -31 -38 -57 233 -10 110 -32 266 -49
346 -16 80 -48 232 -70 339 -52 247 -52 287 -2 461 39 133 58 190 63 190 2 0
3 -108 4 -239 0 -208 -2 -235 -13 -203 -7 20 -14 59 -15 85 -1 27 -6 51 -10
53 -8 5 -13 -21 -8 -41 3 -11 55 -306 71 -400 15 -88 21 -81 12 15 -4 47 -8
245 -7 440 l1 355 37 219 c20 120 42 228 48 240 13 26 110 127 116 121 3 -2 1
-44 -4 -92z m1813 55 c58 -62 67 -93 103 -359 13 -96 20 -209 21 -330 1 -101
5 -197 9 -214 l8 -30 1 35 c4 108 14 265 16 268 2 2 15 -34 30 -80 78 -245 75
-343 -18 -673 -51 -181 -89 -384 -110 -592 -12 -117 -25 -213 -30 -213 -4 0
-15 12 -23 28 -76 138 -267 455 -370 613 -38 59 -108 167 -156 240 -122 189
-316 419 -353 419 -3 0 -5 -7 -5 -15 0 -9 -11 -27 -24 -40 -28 -28 -24 -36 13
-29 21 4 36 -3 74 -36 87 -77 125 -156 87 -180 -16 -10 -73 -2 -118 16 -30 12
-32 16 -22 35 13 24 6 82 -13 97 -30 25 -63 24 -97 -5 l-33 -28 6 35 c4 21 21
48 42 68 19 18 35 42 35 53 0 11 16 29 38 44 20 14 48 34 62 44 14 11 57 40
95 64 152 98 391 278 525 396 143 127 187 179 176 208 -12 30 -26 156 -21 175
9 25 16 23 52 -14z m-2014 -340 c-11 -44 -118 -194 -222 -314 -58 -66 -144
-167 -191 -225 -95 -117 -206 -253 -309 -377 -85 -102 -237 -329 -320 -477
-34 -60 -69 -121 -77 -135 -8 -14 -51 -89 -95 -167 -44 -79 -85 -146 -91 -149
-7 -4 -7 0 0 12 5 11 66 134 135 274 242 491 397 740 588 949 175 191 227 250
287 326 59 74 223 258 257 287 28 24 44 23 38 -4z m990 -643 c-1 -17 -10 -68
-21 -115 -20 -89 -26 -96 -89 -99 -21 -1 -83 43 -83 59 0 11 107 142 138 168
36 30 58 25 55 -13z m108 -95 c23 -13 25 -55 3 -64 -42 -16 -84 1 -84 34 0 36
41 51 81 30z m-1890 -77 c-58 -108 -261 -258 -429 -317 -40 -14 -123 -52 -185
-84 -126 -67 -450 -211 -767 -342 -144 -59 -444 -160 -613 -206 -70 -19 -164
-48 -210 -63 -99 -35 -190 -61 -210 -61 -8 0 -17 10 -21 23 -3 13 -17 40 -30
60 l-25 37 32 13 c18 8 77 26 132 41 675 188 1165 350 1527 507 199 86 598
286 702 352 96 61 112 67 97 40z m1803 2 c3 -8 1 -15 -4 -15 -6 0 -10 7 -10
15 0 8 2 15 4 15 2 0 6 -7 10 -15z m-227 -37 l23 -22 -27 -18 c-34 -22 -52
-23 -59 -4 -5 14 22 66 34 66 3 0 16 -10 29 -22z m588 1 c8 -23 -7 -39 -36
-39 -27 0 -30 13 -7 37 27 28 35 29 43 2z m-2555 -283 c0 -19 -534 -346 -545
-334 -11 10 358 245 485 309 62 31 60 30 60 25z m1725 -63 c3 -16 28 -73 54
-128 83 -173 151 -340 151 -373 0 -11 7 -39 15 -62 18 -50 18 -53 5 -45 -5 3
-10 15 -10 26 0 11 -52 74 -126 152 -128 134 -206 234 -216 274 -4 15 2 34 18
55 13 18 38 54 56 80 18 26 36 48 39 48 4 0 10 -12 14 -27z m1992 -1044 c57
-34 103 -63 103 -65 0 -6 -14 2 -129 70 -52 31 -91 56 -86 56 5 0 55 -27 112
-61z m-2938 8 c-2 -1 -13 -9 -24 -17 -19 -14 -19 -14 -6 3 7 9 18 17 24 17 6
0 8 -1 6 -3z"/>
<path d="M5855 5965 c-37 -18 -42 -23 -20 -18 32 6 85 30 85 38 0 9 -14 4 -65
-20z"/>
<path d="M6375 5611 c-131 -53 -202 -60 -269 -26 -32 17 -96 20 -96 5 0 -6 21
-24 47 -40 42 -27 55 -30 127 -30 90 0 161 25 205 74 25 27 21 31 -14 17z"/>
<path d="M6505 5555 c-71 -34 -84 -43 -62 -44 15 -1 45 8 67 19 22 11 48 20
59 20 11 0 25 9 31 19 22 41 17 41 -95 -14z"/>
<path d="M5983 5503 c9 -2 23 -2 30 0 6 3 -1 5 -18 5 -16 0 -22 -2 -12 -5z"/>
<path d="M6175 5500 c-79 -4 -92 -6 -60 -12 59 -10 224 -8 230 3 4 5 -5 9 -19
9 -13 0 -30 1 -38 3 -7 2 -58 0 -113 -3z"/>
<path d="M3016 5803 c-24 -67 -46 -195 -37 -212 5 -7 11 14 15 51 3 35 15 95
25 133 23 81 21 97 -3 28z"/>
<path d="M3069 5342 c12 -41 37 -86 57 -103 20 -16 19 -14 -24 69 -35 67 -45
78 -33 34z"/>
<path d="M3818 5823 c7 -3 16 -2 19 1 4 3 -2 6 -13 5 -11 0 -14 -3 -6 -6z"/>
<path d="M3760 5601 c0 -24 14 -41 35 -41 12 0 44 -11 70 -26 26 -14 60 -24
74 -22 20 2 7 12 -69 51 -99 49 -110 53 -110 38z"/>
<path d="M3996 5589 c30 -34 95 -66 145 -72 76 -10 214 33 227 71 6 19 -56 15
-117 -8 -58 -23 -77 -21 -174 11 -31 10 -67 19 -79 19 -21 0 -21 0 -2 -21z"/>
<path d="M4015 5497 c11 -8 56 -12 134 -11 178 2 178 19 -1 21 -119 1 -147 -1
-133 -10z"/>
<path d="M7125 5209 c-4 -6 -5 -12 -2 -15 2 -3 7 2 10 11 7 17 1 20 -8 4z"/>
<path d="M5060 4734 c0 -20 38 -74 52 -74 13 0 3 57 -13 77 -16 18 -39 16 -39
-3z"/>
<path d="M5230 4714 c-17 -51 1 -65 30 -24 12 17 19 37 16 45 -10 27 -34 16
-46 -21z"/>
<path d="M4684 4196 c-4 -9 -5 -18 -3 -20 2 -2 85 -6 184 -9 198 -6 207 4 20
22 -66 6 -137 14 -157 18 -30 4 -39 2 -44 -11z"/>
<path d="M5570 4200 c-19 -4 -84 -12 -145 -16 l-110 -8 80 -6 c44 -4 122 -4
173 -2 75 4 92 8 87 19 -3 8 -5 17 -5 19 0 6 -40 3 -80 -6z"/>
<path d="M6230 2200 c0 -22 2 -40 4 -40 2 0 6 18 8 40 2 22 0 40 -4 40 -5 0
-8 -18 -8 -40z"/>
<path d="M8124 3069 c-41 -12 -91 -63 -117 -119 -29 -62 -36 -225 -13 -302 51
-176 200 -232 314 -118 72 72 100 174 83 301 -25 183 -131 278 -267 238z m101
-53 c41 -41 60 -125 59 -271 0 -111 -3 -137 -21 -177 -34 -75 -74 -84 -126
-30 -37 39 -60 136 -61 257 0 122 16 187 56 220 37 31 62 32 93 1z"/>
<path d="M7615 3056 c-58 -26 -95 -80 -95 -140 0 -6 24 15 53 47 50 53 56 57
98 57 67 0 109 -51 109 -132 -1 -72 -32 -122 -155 -248 -76 -78 -115 -125
-115 -139 0 -18 4 -21 20 -16 11 3 94 7 185 8 l165 1 9 36 c24 95 28 119 23
125 -3 3 -20 -11 -38 -30 l-32 -35 -96 0 c-53 0 -96 3 -96 7 0 3 42 49 93 102
51 53 101 113 111 134 38 81 16 167 -54 214 -39 27 -135 31 -185 9z"/>
<path d="M8870 2655 c-37 -5 -63 -14 -60 -20 3 -5 9 -9 13 -7 5 1 29 5 53 9
41 5 44 4 45 -18 l0 -24 10 24 c17 44 10 48 -61 36z"/>
<path d="M8594 2643 c4 -4 24 -6 44 -5 20 2 52 -2 71 -7 36 -11 62 -4 40 10
-17 10 -165 12 -155 2z"/>
<path d="M8625 2590 c4 -8 17 -25 27 -37 20 -21 20 -21 -9 -37 -15 -8 -23 -15
-16 -16 7 0 23 10 37 23 l24 22 -36 30 c-20 17 -32 23 -27 15z"/>
<path d="M8755 2547 c-5 -18 -15 -27 -33 -30 -24 -4 -24 -4 5 -6 27 -1 34 3
39 24 4 14 4 29 1 32 -3 3 -9 -6 -12 -20z"/>
<path d="M8810 2533 c0 -20 6 -22 75 -25 41 -2 75 0 75 3 0 4 -11 14 -25 23
-22 14 -25 15 -25 1 0 -23 -76 -21 -89 3 -9 15 -10 15 -11 -5z"/>
<path d="M8580 2510 c0 -5 5 -10 11 -10 5 0 7 5 4 10 -3 6 -8 10 -11 10 -2 0
-4 -4 -4 -10z"/>
<path d="M5567 1302 c-81 -81 -147 -151 -147 -156 0 -13 284 264 292 286 4 10
6 18 5 17 -1 0 -68 -66 -150 -147z"/>
<path d="M4550 1197 c0 -12 82 -177 91 -182 4 -3 -12 36 -37 87 -46 93 -54
107 -54 95z"/>
<path d="M4658 984 c33 -64 172 -263 184 -264 5 0 -12 28 -35 63 -119 172
-141 203 -150 212 -5 6 -5 0 1 -11z"/>
<path d="M4301 915 c-2 -52 104 -533 116 -522 2 3 -6 42 -18 88 -12 46 -39
167 -59 269 -21 102 -38 176 -39 165z"/>
<path d="M4660 866 c0 -2 8 -10 18 -17 15 -13 16 -12 3 4 -13 16 -21 21 -21
13z"/>
<path d="M4690 826 c0 -2 8 -10 18 -17 15 -13 16 -12 3 4 -13 16 -21 21 -21
13z"/>
<path d="M5770 768 c0 -3 -9 -54 -21 -112 -11 -59 -19 -112 -17 -118 3 -7 14
41 27 106 12 65 19 121 16 124 -3 3 -5 3 -5 0z"/>
<path d="M4501 664 c-1 -6 8 -39 19 -73 19 -62 39 -105 39 -86 0 15 -58 172
-58 159z"/>
<path d="M6141 574 c0 -11 3 -14 6 -6 3 7 2 16 -1 19 -3 4 -6 -2 -5 -13z"/>
<path d="M4421 370 c0 -8 4 -24 9 -35 5 -13 9 -14 9 -5 0 8 -4 24 -9 35 -5 13
-9 14 -9 5z"/>
<path d="M4461 224 c0 -11 3 -14 6 -6 3 7 2 16 -1 19 -3 4 -6 -2 -5 -13z"/>
</g>
</svg>
